<?xml version="1.0" encoding="utf-8"?>
<!DOCTYPE svg PUBLIC "-//W3C//DTD SVG 1.1//EN" "http://www.w3.org/Graphics/SVG/1.1/DTD/svg11.dtd">
<svg style="width:308px;height:308px;" version="1.1" id="图形" xmlns="http://www.w3.org/2000/svg" xmlns:xlink="http://www.w3.org/1999/xlink" x="0px" y="0px" width="1024px" height="1024px" viewBox="0 0 1024 1024" enable-background="new 0 0 1024 1024" xml:space="preserve">
  <path class="svgpath" data-index="path_0" fill="#bfbfbf" d="M512 0C230.4 0 0 230.4 0 512c0 281.600997 230.4 512 512 512 281.600997 0 512-230.399003 512-512C1024 230.4 793.600997 0 512 0zM512 938.666999C273.066002 938.666999 85.333001 750.933998 85.333001 512S273.066002 85.333001 512 85.333001 938.666999 273.066002 938.666999 512 750.933998 938.666999 512 938.666999zM733.867996 307.2 426.666999 622.933998 290.133001 477.866999c-17.066999-17.067996-42.666999-17.067996-59.733001 0-17.066002 17.066999-17.066002 42.666999 0 59.733998l170.666999 170.666002c8.533998 8.533001 17.066999 8.533001 34.133998 8.533001 17.066002 0 25.599003 0 34.133001-8.533001l341.333001-341.333001c17.066002-17.066999 17.066002-42.666999 0-59.733998C793.600997 290.133001 750.933998 298.666999 733.867996 307.2z" />

</svg>
