<?xml version="1.0" encoding="utf-8"?>
<!-- Generator: Adobe Illustrator 16.0.0, SVG Export Plug-In . SVG Version: 6.00 Build 0)  -->
<!DOCTYPE svg PUBLIC "-//W3C//DTD SVG 1.1//EN" "http://www.w3.org/Graphics/SVG/1.1/DTD/svg11.dtd">
<svg version="1.1" id="图形" xmlns="http://www.w3.org/2000/svg" xmlns:xlink="http://www.w3.org/1999/xlink" x="0px" y="0px"
	 width="1024px" height="1024px" viewBox="0 0 1024 1024" enable-background="new 0 0 1024 1024" xml:space="preserve">
<path fill="#FD5C00" d="M512.955,1024.34c-282.424,0-511.359-229.153-511.359-511.733c0-282.631,228.935-511.733,511.359-511.733
	c282.423,0,511.359,229.103,511.359,511.733C1024.314,795.187,795.378,1024.34,512.955,1024.34z M510.092,96.312
	c-229.447,0-407.451,186.168-407.451,415.784s178.004,409.386,407.451,409.386c229.497,0,415.529-179.771,415.529-409.386
	S739.589,96.312,510.092,96.312z M717.908,563.269h-153.46V716.84c0,28.247-22.856,51.122-51.085,51.122h-0.102
	c-28.227,0-51.085-22.875-51.085-51.122V563.269H308.718c-28.227,0-51.084-22.876-51.084-51.123v-0.102
	c0-28.249,22.858-51.122,51.084-51.122h153.459V307.35c0-28.248,22.858-51.122,51.085-51.122h0.102
	c28.229,0,51.085,22.874,51.085,51.122v153.572h153.46c28.226,0,51.084,22.874,51.084,51.122v0.102
	C768.992,540.393,746.134,563.269,717.908,563.269z"/>
</svg>
