<?xml version="1.0" encoding="utf-8"?>
<!-- Generator: Adobe Illustrator 16.0.0, SVG Export Plug-In . SVG Version: 6.00 Build 0)  -->
<!DOCTYPE svg PUBLIC "-//W3C//DTD SVG 1.1//EN" "http://www.w3.org/Graphics/SVG/1.1/DTD/svg11.dtd">
<svg version="1.1" id="图形" xmlns="http://www.w3.org/2000/svg" xmlns:xlink="http://www.w3.org/1999/xlink" x="0px" y="0px"
	 width="1024px" height="1024px" viewBox="0 0 1024 1024" enable-background="new 0 0 1024 1024" xml:space="preserve">
<path fill="#FD5C00" d="M830.293,615.025c-13.592,38.648-49.888,64.638-90.402,64.638H359.346c-45.66,0-85.221-32.975-94.09-78.374
	l-64.501-330.916l-21.337-99.255h-71.455c-11.378,0-20.577-9.292-20.577-20.793c0-11.539,9.206-20.832,20.577-20.832h88.007
	c3.254,0.508,4.601,0.774,5.971,1.21c1.236,0.401,2.363,0.811,3.476,1.438c1.206,0.626,2.213,1.356,3.268,2.203
	c1.06,0.845,1.959,1.69,2.828,2.72c0.793,0.993,1.484,2.06,2.091,3.198c0.686,1.241,1.273,2.497,1.701,3.853
	c0.186,0.626,0.625,1.111,0.767,1.764l21.338,99.324h626.253c22.058,0,42.825,10.878,55.525,29.138
	c12.781,18.266,15.922,41.751,8.566,62.849L830.293,615.025z M885.623,298.371c-5.083-7.314-13.077-11.539-21.944-11.539H245.871
	l59.711,306.379c5.07,25.946,27.688,44.766,53.771,44.766H739.9c23.155,0,43.917-14.855,51.675-36.93l97.47-277.849
	c2.941-8.442,1.738-17.492-3.415-24.83l0,0L885.623,298.371z M344.416,724.847c45.729,0,82.904,37.646,82.904,83.946
	c0,46.307-37.183,83.979-82.904,83.979c-45.694,0-82.863-37.676-82.863-83.979C261.553,762.499,298.717,724.847,344.416,724.847
	L344.416,724.847L344.416,724.847z M344.416,851.134c23.04,0,41.779-18.989,41.779-42.325c0-23.319-18.744-42.281-41.779-42.281
	c-23.011,0-41.733,18.969-41.733,42.281C302.683,832.158,321.41,851.134,344.416,851.134L344.416,851.134L344.416,851.134z
	 M710.718,724.847c45.709,0,82.874,37.646,82.874,83.946c0,46.307-37.164,83.979-82.874,83.979
	c-45.677,0-82.848-37.676-82.848-83.979C627.87,762.499,665.046,724.847,710.718,724.847L710.718,724.847L710.718,724.847z
	 M710.718,851.134c23.046,0,41.782-18.989,41.782-42.325c0-23.319-18.744-42.281-41.782-42.281
	c-23.04,0-41.759,18.969-41.759,42.281C668.958,832.158,687.676,851.134,710.718,851.134L710.718,851.134L710.718,851.134z"/>
</svg>
