<?xml version="1.0" encoding="utf-8"?>
<!DOCTYPE svg PUBLIC "-//W3C//DTD SVG 1.1//EN" "http://www.w3.org/Graphics/SVG/1.1/DTD/svg11.dtd">
<svg style="width:308px;height:308px;" version="1.1" id="图形" xmlns="http://www.w3.org/2000/svg" xmlns:xlink="http://www.w3.org/1999/xlink" x="0px" y="0px" width="1024px" height="1024px" viewBox="0 0 1024 1024" enable-background="new 0 0 1024 1024" xml:space="preserve">
  <path class="svgpath" data-index="path_0" fill="#707070" d="M508.510014 70.53445c60.491723-0.778736 117.484761 10.085706 170.999582 32.571836 53.506635 22.491247 100.226702 53.315276 140.17146 92.480274 39.935548 39.162952 71.731718 85.302805 95.381347 138.425699 23.658839 53.121871 35.877115 109.934808 36.642548 170.419368 0.778736 57.384965-9.104355 111.473861-29.65439 162.268734-20.557198 50.801013-48.858778 95.776344-84.924181 134.940318-36.062334 39.158858-78.712713 71.349001-127.95216 96.549963-49.245587 25.204032-102.174054 40.906665-158.783353 47.109947-29.473265 3.876284-63.788815 6.78452-102.951767 8.728802-39.161928 1.933025-89.765443-0.196475-151.805428-6.402827-34.894741-3.097548-65.139579-6.975878-90.730421-11.629875-25.596981-4.65502-46.725184-9.31004-63.397912-13.953803-16.671705-4.65502-28.496008-8.731872-35.483142-12.217253-6.976902-3.496637-8.91402-5.624091-5.814426-6.402827 38.005592-6.976902 68.245314-16.671705 90.736561-29.080316 13.18223-7.755638 18.608823-18.415418 16.285918-31.988552-2.325975-13.573133-8.91709-26.176173-19.782555-37.806047-33.339316-37.223786-60.677964-80.649831-81.999572-130.281205-21.332864-49.635467-32.385595-103.531981-33.158191-161.693636-0.776689-60.486606 10.077519-117.484761 32.573883-170.999582 22.485107-53.506635 53.507658-100.231819 93.057419-140.173506 39.549761-39.935548 86.081541-71.542406 139.590222-94.806249C391.025253 83.333964 448.018292 71.311139 508.510014 70.53445L508.510014 70.53445 508.510014 70.53445zM367.756293 589.348646c20.935822 0 38.579667-7.367805 52.924373-22.106484 14.349823-14.730493 21.521153-32.17991 21.521153-52.344159 0-20.162202-7.17133-37.612643-21.521153-52.345182-14.344706-14.730493-31.988552-22.103414-52.924373-22.103414-20.940938 0-38.579667 7.372921-52.930513 22.103414-14.344706 14.731516-21.515013 32.18298-21.515013 52.345182 0 20.164249 7.170307 37.614689 21.515013 52.344159C329.17765 581.980841 346.815355 589.348646 367.756293 589.348646L367.756293 589.348646 367.756293 589.348646zM657.403113 588.177983c20.165272 0 37.420261-6.975878 51.765991-20.935822 14.346753-13.95892 21.515013-31.016411 21.515013-51.179636 0-20.163225-7.169283-37.421284-21.515013-51.765991-14.34573-14.3488-31.600719-21.520129-51.765991-21.520129-20.161179 0-37.22174 7.170307-51.18066 21.520129-13.964036 14.34573-20.941961 31.602765-20.941961 51.765991 0 20.164249 6.976902 37.22174 20.941961 51.179636C620.187513 581.202105 637.241934 588.177983 657.403113 588.177983L657.403113 588.177983 657.403113 588.177983zM657.403113 588.177983" />

</svg>
