<?xml version="1.0" encoding="utf-8"?>
<!DOCTYPE svg PUBLIC "-//W3C//DTD SVG 1.1//EN" "http://www.w3.org/Graphics/SVG/1.1/DTD/svg11.dtd">
<svg style="width:308px;height:308px;" version="1.1" id="图形" xmlns="http://www.w3.org/2000/svg" xmlns:xlink="http://www.w3.org/1999/xlink" x="0px" y="0px" width="1024px" height="1024px" viewBox="0 0 1024 1024" enable-background="new 0 0 1024 1024" xml:space="preserve">
  <path class="svgpath" data-index="path_0" fill="#707070" d="M919.843 210.418h-678.669l-11.765-97.064c-1.92-15.839-16.544-28.797-32.497-28.797h-6.45c-2.725 0-5.315 0.386-7.735 1.092h-82.953c-19.144 0-34.809 14.358-34.809 31.908s15.664 31.908 34.809 31.908h69.548l66.407 547.876c1.92 15.839 16.544 28.797 32.497 28.797h6.45c2.695 0 5.26-0.378 7.657-1.069h548.821c19.145 0 34.809-14.358 34.809-31.909 0-17.549-15.664-31.908-34.809-31.908h-535.334l-8.134-67.111h545.177c15.954 0 31.893-12.73 35.42-28.29l74.156-327.145c3.526-15.557-6.641-28.287-22.595-28.287z" />
<path class="svgpath" data-index="path_1" fill="#707070" d="M294.588 865.719c0 42.808 34.703 77.511 77.511 77.511s77.511-34.703 77.511-77.511c0-42.808-34.703-77.511-77.511-77.511-42.808 0-77.511 34.703-77.511 77.511z" />
<path class="svgpath" data-index="path_2" fill="#707070" d="M678.827 865.719c0 42.808 34.703 77.511 77.511 77.511s77.511-34.703 77.511-77.511c0-42.808-34.703-77.511-77.511-77.511-42.808 0-77.511 34.703-77.511 77.511z" />

</svg>
